<?xml version="1.0" encoding="utf-8"?>
<!-- Generator: Adobe Illustrator 15.0.0, SVG Export Plug-In . SVG Version: 6.00 Build 0)  -->
<!DOCTYPE svg PUBLIC "-//W3C//DTD SVG 1.1//EN" "http://www.w3.org/Graphics/SVG/1.1/DTD/svg11.dtd" [
	<!ENTITY ns_extend "http://ns.adobe.com/Extensibility/1.0/">
	<!ENTITY ns_ai "http://ns.adobe.com/AdobeIllustrator/10.0/">
	<!ENTITY ns_graphs "http://ns.adobe.com/Graphs/1.0/">
	<!ENTITY ns_vars "http://ns.adobe.com/Variables/1.0/">
	<!ENTITY ns_imrep "http://ns.adobe.com/ImageReplacement/1.0/">
	<!ENTITY ns_sfw "http://ns.adobe.com/SaveForWeb/1.0/">
	<!ENTITY ns_custom "http://ns.adobe.com/GenericCustomNamespace/1.0/">
	<!ENTITY ns_adobe_xpath "http://ns.adobe.com/XPath/1.0/">
]>
<svg version="1.1" id="Layer_1" xmlns:x="&ns_extend;" xmlns:i="&ns_ai;" xmlns:graph="&ns_graphs;"
	 xmlns="http://www.w3.org/2000/svg" xmlns:xlink="http://www.w3.org/1999/xlink" x="0px" y="0px" width="307.5px"
	 height="146.641px" viewBox="0 0 307.5 146.641" enable-background="new 0 0 307.5 146.641" xml:space="preserve">
<metadata>
	<sfw  xmlns="&ns_sfw;">
		<slices></slices>
		<sliceSourceBounds  height="145.081" width="303.622" x="269.194" y="225.149" bottomLeftOrigin="true"></sliceSourceBounds>
		<optimizationSettings>
			<targetSettings  fileFormat="PNG24Format" targetSettingsID="0">
				<PNG24Format  transparency="true" noMatteColor="false" matteColor="#FFFFFF" interlaced="false" filtered="false">
					</PNG24Format>
			</targetSettings>
		</optimizationSettings>
	</sfw>
</metadata>
<path fill-rule="evenodd" clip-rule="evenodd" fill="#00885B" d="M277.811,58.608c1.01,1.656,2.154,3.221,3.41,4.688
	c-1.168,1.539-3.012,2.536-5.092,2.536c-3.533,0-6.398-2.864-6.398-6.397c0-3.535,2.865-6.399,6.398-6.399
	c2.484,0,4.635,1.421,5.693,3.493L277.811,58.608z M159.313,58.171c0-3.234,2.621-5.854,5.855-5.854
	c1.691,0,3.205,0.729,4.275,1.878l-9.99,5.229C159.367,59.016,159.313,58.601,159.313,58.171z M127.475,65.913
	c-3.515,0-6.365-2.85-6.365-6.364s2.85-6.364,6.365-6.364c1.811,0,3.442,0.76,4.6,1.975l-2.081,3.311l2.581,4.873
	C131.415,64.899,129.565,65.913,127.475,65.913z M94.074,58.218l2.595,4.9c-1.167,1.564-3.026,2.582-5.129,2.582
	c-3.533,0-6.398-2.863-6.398-6.397s2.865-6.397,6.398-6.397c2.53,0,4.71,1.471,5.748,3.601L94.074,58.218z M238.871,53.479
	c3.857-1.045,7.863,0.326,8.783,3.389c0.67,2.223-0.404,4.618-2.498,6.212l-2.338-4.409l-10.6,5.598l1.188,2.256l2.268-1.197
	l4.953,9.369l18.846-9.918c1.471,5.668,6.602,9.861,12.732,9.861c5.48,0,10.174-3.344,12.16-8.104
	c5.441,4.945,12.408,8.252,20.135,9.115l1.238-3.188c-8.678-3.035-15.398-10.18-17.871-19.068l-3.955,2.05
	c-2.188-4.243-6.605-7.149-11.707-7.149c-6.998,0-12.703,5.46-13.131,12.349l-11.891,6.257l-0.785-1.48
	c7.25-3.076,11.793-8.613,10.248-12.703c-1.51-4-8.303-5.195-15.59-2.926l18.061-28.662h-10.551l-22.973,36.378l-7.959-15.095
	l-4.688,7.514l0.01,0.021l-6.688,10.767l-6.5-12.37l-6.447,10.337l0.008,0.014l-1.166,1.878l-6.502-12.325l-6.41,10.307l-0.01-0.007
	l-1.602,2.509c-3.518,4.956-9.154,7.227-13.605,5.118c-1.551-0.735-2.703-1.923-3.578-3.401c-0.012-0.02-0.023-0.038-0.033-0.057
	l13.182-6.939l-0.006-0.01l0.734-0.385c-2.193-4.193-6.572-7.062-11.633-7.062c-7.248,0-13.124,5.876-13.124,13.125
	c0,0.957,0.104,1.89,0.3,2.789l-4.822,2.529l-4.423-8.331l23.571-37.454h-10.65L133.45,52.969c-2.402-2.756-5.935-4.5-9.878-4.5
	c-7.237,0-13.103,5.867-13.103,13.104c0,1.4,0.231,2.744,0.64,4.009l-1.885,0.989l-6.797-12.802l-3.054,1.626
	c-2.172-4.288-6.619-7.231-11.756-7.231c-7.275,0-13.174,5.899-13.174,13.174c0,1.041,0.13,2.05,0.359,3.021l-5.043,2.646
	l-6.532-12.267c20.88-11.533,36.949-30.709,44.406-53.768l-0.157,0.048c-41.09,5.86-75.653,31.974-93.249,67.911l17.73-5.594
	c-3.093,8.914-9.954,16.055-18.672,19.547L2.979,109.12c17.93-12.537,32.377-29.713,41.582-49.795l-8.872,2.71
	c10.493-23.511,30.288-41.948,54.713-50.65c-2.399,17.675-13.469,32.585-28.787,40.326l-1.721-3.229l-12.349,6.563l1.447,2.583
	l2.531-1.292l10.025,18.756l14.437-7.568c2.215,4.158,6.592,6.988,11.632,6.988c4.946,0,9.253-2.727,11.505-6.758l3.271,6.178
	l10.119-5.334c2.326,3.653,6.408,6.08,11.059,6.08c4.92,0,9.204-2.713,11.444-6.725l3.254,6.145L151,67.388
	c2.17,4.261,6.593,7.181,11.701,7.181l0.283,0.039c4.705-0.094,8.945-2.064,12.018-5.189c1.293-1.186,2.443-2.521,3.424-3.975
	l0.004,0.002l0.047-0.076c0.244-0.364,0.477-0.736,0.699-1.113l1.611-2.575l6.66,12.894l3.154-5.106l4.521-7.275l0.816,1.595
	l5.615,10.834l6.336-10.184l0.023,0.014l5.779-9.303l5.322,10.17c0.063,0.115,0.107,0.242,0.162,0.361l0,0
	c0.023,0.045,0.041,0.092,0.063,0.136c0.064,0.146,0.139,0.284,0.197,0.433l0.002-0.002c0.314,0.748,0.494,1.564,0.494,2.426
	c0,3.477-2.818,6.295-6.295,6.295c-2.102,0-3.951-1.035-5.094-2.619l-1.83,2.906c2.32,2.795,5.799,4.592,9.715,4.592
	c6.988,0,12.654-5.666,12.654-12.654c0-1.932-0.451-3.748-1.225-5.385l0.002-0.002l-0.014-0.025
	c-0.07-0.146-0.131-0.299-0.201-0.444c0.879-1.261,1.969-2.497,3.27-3.634C233.424,55.509,236.379,54.022,238.871,53.479z"/>
<path fill="none" stroke="#1D1D1B" stroke-width="0.5" stroke-miterlimit="22.9256" d="M277.811,58.608
	c1.01,1.656,2.154,3.221,3.41,4.688c-1.168,1.539-3.012,2.536-5.092,2.536c-3.533,0-6.398-2.864-6.398-6.397
	c0-3.535,2.865-6.399,6.398-6.399c2.484,0,4.635,1.421,5.693,3.493L277.811,58.608z M159.313,58.171
	c0-3.234,2.621-5.854,5.855-5.854c1.691,0,3.205,0.729,4.275,1.878l-9.99,5.229C159.367,59.016,159.313,58.601,159.313,58.171z
	 M127.475,65.913c-3.515,0-6.365-2.85-6.365-6.364s2.85-6.364,6.365-6.364c1.811,0,3.442,0.76,4.6,1.975l-2.081,3.311l2.581,4.873
	C131.415,64.899,129.565,65.913,127.475,65.913z M94.074,58.218l2.595,4.9c-1.167,1.564-3.026,2.582-5.129,2.582
	c-3.533,0-6.398-2.863-6.398-6.397s2.865-6.397,6.398-6.397c2.53,0,4.71,1.471,5.748,3.601L94.074,58.218z M238.871,53.479
	c3.857-1.045,7.863,0.326,8.783,3.389c0.67,2.223-0.404,4.618-2.498,6.212l-2.338-4.409l-10.6,5.598l1.188,2.256l2.268-1.197
	l4.953,9.369l18.846-9.918c1.471,5.668,6.602,9.861,12.732,9.861c5.48,0,10.174-3.344,12.16-8.104
	c5.441,4.945,12.408,8.252,20.135,9.115l1.238-3.188c-8.678-3.035-15.398-10.18-17.871-19.068l-3.955,2.05
	c-2.188-4.243-6.605-7.149-11.707-7.149c-6.998,0-12.703,5.46-13.131,12.349l-11.891,6.257l-0.785-1.48
	c7.25-3.076,11.793-8.613,10.248-12.703c-1.51-4-8.303-5.195-15.59-2.926l18.061-28.662h-10.551l-22.973,36.378l-7.959-15.095
	l-4.688,7.514l0.01,0.021l-6.688,10.767l-6.5-12.37l-6.447,10.337l0.008,0.014l-1.166,1.878l-6.502-12.325l-6.41,10.307l-0.01-0.007
	l-1.602,2.509c-3.518,4.956-9.154,7.227-13.605,5.118c-1.551-0.735-2.703-1.923-3.578-3.401c-0.012-0.02-0.023-0.038-0.033-0.057
	l13.182-6.939l-0.006-0.01l0.734-0.385c-2.193-4.193-6.572-7.062-11.633-7.062c-7.248,0-13.124,5.876-13.124,13.125
	c0,0.957,0.104,1.89,0.3,2.789l-4.822,2.529l-4.423-8.331l23.571-37.454h-10.65L133.45,52.969c-2.402-2.756-5.935-4.5-9.878-4.5
	c-7.237,0-13.103,5.867-13.103,13.104c0,1.4,0.231,2.744,0.64,4.009l-1.885,0.989l-6.797-12.802l-3.054,1.626
	c-2.172-4.288-6.619-7.231-11.756-7.231c-7.275,0-13.174,5.899-13.174,13.174c0,1.041,0.13,2.05,0.359,3.021l-5.043,2.646
	l-6.532-12.267c20.88-11.533,36.949-30.709,44.406-53.768l-0.157,0.048c-41.09,5.86-75.653,31.974-93.249,67.911l17.73-5.594
	c-3.093,8.914-9.954,16.055-18.672,19.547L2.979,109.12c17.93-12.537,32.377-29.713,41.582-49.795l-8.872,2.71
	c10.493-23.511,30.288-41.948,54.713-50.65c-2.399,17.675-13.469,32.585-28.787,40.326l-1.721-3.229l-12.349,6.563l1.447,2.583
	l2.531-1.292l10.025,18.756l14.437-7.568c2.215,4.158,6.592,6.988,11.632,6.988c4.946,0,9.253-2.727,11.505-6.758l3.271,6.178
	l10.119-5.334c2.326,3.653,6.408,6.08,11.059,6.08c4.92,0,9.204-2.713,11.444-6.725l3.254,6.145L151,67.388
	c2.17,4.261,6.593,7.181,11.701,7.181l0.283,0.039c4.705-0.094,8.945-2.064,12.018-5.189c1.293-1.186,2.443-2.521,3.424-3.975
	l0.004,0.002l0.047-0.076c0.244-0.364,0.477-0.736,0.699-1.113l1.611-2.575l6.66,12.894l3.154-5.106l4.521-7.275l0.816,1.595
	l5.615,10.834l6.336-10.184l0.023,0.014l5.779-9.303l5.322,10.17c0.063,0.115,0.107,0.242,0.162,0.361l0,0
	c0.023,0.045,0.041,0.092,0.063,0.136c0.064,0.146,0.139,0.284,0.197,0.433l0.002-0.002c0.314,0.748,0.494,1.564,0.494,2.426
	c0,3.477-2.818,6.295-6.295,6.295c-2.102,0-3.951-1.035-5.094-2.619l-1.83,2.906c2.32,2.795,5.799,4.592,9.715,4.592
	c6.988,0,12.654-5.666,12.654-12.654c0-1.932-0.451-3.748-1.225-5.385l0.002-0.002l-0.014-0.025
	c-0.07-0.146-0.131-0.299-0.201-0.444c0.879-1.261,1.969-2.497,3.27-3.634C233.424,55.509,236.379,54.022,238.871,53.479z"/>
<path fill-rule="evenodd" clip-rule="evenodd" fill="#1D1D1B" d="M290.604,39.505c-1.896,0-3.371,1.486-3.371,3.615
	c0,1.989,1.287,3.616,3.371,3.616c1.871,0,3.344-1.474,3.344-3.616C293.947,40.991,292.475,39.505,290.604,39.505z M290.604,47.497
	c-2.518,0-4.309-1.885-4.309-4.377c0-2.633,1.99-4.376,4.309-4.376c2.293,0,4.281,1.743,4.281,4.376S292.896,47.497,290.604,47.497z
	 M290.625,42.875c0.598,0,1.123-0.058,1.123-0.761c0-0.586-0.572-0.655-1.051-0.655h-0.961v1.416H290.625z M289.736,45.624h-0.795
	V40.78h1.838c1.168,0,1.766,0.409,1.766,1.393c0,0.878-0.539,1.24-1.264,1.322l1.357,2.129h-0.902l-1.25-2.07h-0.75V45.624z"/>
<polygon fill-rule="evenodd" clip-rule="evenodd" fill="#15895B" points="86.207,104.821 86.043,104.202 85.91,103.577 
	85.807,102.946 85.733,102.311 85.69,101.677 85.675,101.04 85.69,100.401 85.733,99.766 85.807,99.13 85.91,98.499 86.043,97.872 
	86.207,97.249 86.4,96.634 86.625,96.026 86.881,95.427 87.168,94.835 87.487,94.257 87.837,93.692 88.219,93.139 88.632,92.602 
	89.078,92.083 89.555,91.579 90.047,91.114 90.556,90.677 91.084,90.272 91.627,89.897 92.186,89.55 92.758,89.235 93.342,88.948 
	93.937,88.694 94.542,88.468 95.155,88.274 95.776,88.11 96.402,87.973 97.034,87.868 97.668,87.796 98.306,87.749 98.943,87.735 
	99.583,87.749 100.219,87.796 100.855,87.868 101.487,87.973 102.112,88.11 102.733,88.274 103.347,88.468 103.951,88.694 
	104.546,88.948 105.13,89.235 105.703,89.55 106.261,89.897 106.805,90.272 107.332,90.677 107.842,91.114 108.362,91.608 
	109.487,92.975 110.648,91.604 111.15,91.126 111.647,90.698 112.165,90.298 112.7,89.925 113.253,89.577 113.821,89.259 
	114.405,88.968 115.001,88.708 115.61,88.473 116.231,88.272 116.863,88.098 117.502,87.956 118.15,87.844 118.806,87.764 
	119.467,87.716 120.132,87.7 120.775,87.716 121.416,87.764 122.053,87.844 122.685,87.958 123.312,88.1 123.931,88.272 
	124.543,88.475 125.143,88.71 125.733,88.969 126.312,89.26 126.877,89.579 127.425,89.925 127.96,90.298 128.476,90.7 
	128.973,91.126 129.449,91.579 129.902,92.057 130.33,92.553 130.732,93.071 131.106,93.608 131.452,94.159 131.77,94.727 
	132.062,95.311 132.323,95.909 132.555,96.516 132.758,97.137 132.931,97.768 133.073,98.409 133.184,99.057 133.264,99.712 
	133.313,100.374 133.329,101.04 133.313,101.704 133.264,102.36 133.184,103.009 133.073,103.651 132.929,104.28 132.756,104.901 
	132.553,105.512 132.319,106.108 132.057,106.692 131.765,107.262 131.446,107.819 131.1,108.36 130.726,108.885 130.326,109.393 
	129.9,109.885 129.456,110.348 129.398,110.407 129.259,110.546 128.347,111.448 127.897,111.893 127.384,112.403 126.812,112.969 
	126.188,113.587 125.774,113.997 124.056,115.698 123.278,116.466 122.475,117.262 121.653,118.073 120.817,118.901 
	119.973,119.733 119.127,120.567 118.285,121.399 117.451,122.223 116.632,123.03 115.832,123.817 115.058,124.579 114.315,125.311 
	113.608,126.003 112.945,126.655 112.329,127.259 111.766,127.809 111.261,128.3 110.82,128.727 110.45,129.085 109.379,130.106 
	108.448,129.259 108.209,129.032 107.892,128.723 107.494,128.335 107.022,127.87 106.481,127.335 105.88,126.737 105.223,126.083 
	104.516,125.378 103.767,124.63 102.98,123.843 102.164,123.026 101.325,122.186 100.469,121.327 99.603,120.46 98.73,119.585 
	97.863,118.714 97.004,117.85 96.162,117.001 95.338,116.177 94.545,115.378 93.787,114.616 93.071,113.895 92.401,113.221 
	91.787,112.602 91.233,112.046 90.747,111.555 90.334,111.141 90.002,110.805 89.757,110.559 89.608,110.409 89.557,110.358 
	89.097,109.899 88.647,109.397 88.23,108.878 87.845,108.339 87.493,107.786 87.172,107.216 86.884,106.634 86.626,106.04 
	86.401,105.434 "/>
<path fill-rule="evenodd" clip-rule="evenodd" fill="#E63027" d="M90.369,109.544c-2.41-2.268-3.543-5.385-3.543-8.504
	s1.133-6.236,3.543-8.646c4.678-4.676,12.472-4.676,17.149,0l1.984,2.41l0.425-0.566l1.56-1.844
	c2.268-2.268,5.385-3.543,8.646-3.543c3.118,0,6.235,1.275,8.503,3.543c2.268,2.268,3.543,5.387,3.543,8.646
	c0,3.258-1.275,6.236-3.543,8.504c0,0-16.582,16.439-19.274,18.99C108.51,127.825,90.369,109.544,90.369,109.544"/>
<polygon fill-rule="evenodd" clip-rule="evenodd" fill="#15895B" points="218.752,107.88 219.08,107.395 219.389,106.895 
	219.674,106.382 219.936,105.85 220.17,105.309 220.383,104.753 220.57,104.184 220.729,103.604 220.859,103.014 220.963,102.415 
	221.039,101.805 221.084,101.186 221.1,100.548 221.035,99.274 220.844,98.01 220.531,96.784 220.107,95.6 219.578,94.464 
	218.947,93.387 218.223,92.376 217.412,91.436 216.52,90.577 215.553,89.803 214.512,89.124 213.406,88.553 212.244,88.091 
	211.031,87.751 209.771,87.542 208.561,87.473 207.861,87.413 207.076,87.407 206.273,87.458 205.455,87.571 204.633,87.747 
	203.803,87.983 202.975,88.28 202.154,88.647 201.342,89.075 200.545,89.573 199.77,90.137 199.021,90.774 198.303,91.477 
	197.623,92.255 197.377,92.581 197.146,92.274 196.51,91.51 195.848,90.805 195.162,90.165 194.453,89.587 193.721,89.075 
	192.963,88.63 192.186,88.251 191.383,87.938 190.563,87.7 189.725,87.53 188.869,87.428 188.002,87.399 187.123,87.436 
	186.309,87.536 185.111,87.6 183.846,87.807 182.619,88.143 181.438,88.598 180.311,89.163 179.244,89.831 178.244,90.596 
	177.318,91.446 176.473,92.378 175.717,93.382 175.053,94.454 174.492,95.587 174.043,96.768 173.711,97.999 173.504,99.266 
	173.436,100.546 173.451,101.186 173.496,101.805 173.572,102.415 173.676,103.016 173.809,103.606 173.967,104.184 
	174.152,104.753 174.365,105.309 174.602,105.852 174.863,106.382 175.146,106.895 175.455,107.395 175.785,107.88 176.137,108.346 
	176.51,108.794 176.895,109.218 197.27,130.432 217.641,109.218 218.027,108.796 218.398,108.346 "/>
<path fill-rule="evenodd" clip-rule="evenodd" fill="#E63027" d="M197.27,128.772l19.529-20.34c1.953-2.047,3.148-4.818,3.148-7.869
	c0-6.305-5.168-11.941-11.469-11.941c-3.512-0.449-8.316,1.281-11.094,5.986c-2.955-4.658-6.629-6.604-10.977-5.926
	c-6.301,0-11.822,5.578-11.822,11.881c0,3.051,1.197,5.822,3.148,7.869L197.27,128.772z"/>
<polygon fill-rule="evenodd" clip-rule="evenodd" fill="#15895B" points="130.264,119.766 130.131,119.139 130.027,118.509 
	129.955,117.876 129.911,117.239 129.896,116.602 129.911,115.964 129.955,115.329 130.027,114.694 130.131,114.063 
	130.264,113.434 130.427,112.813 130.621,112.196 130.846,111.589 131.102,110.989 131.389,110.399 131.708,109.821 
	132.057,109.257 132.439,108.702 132.853,108.167 133.299,107.645 133.775,107.143 134.267,106.677 134.778,106.241 
	135.304,105.835 135.848,105.46 136.407,105.114 136.978,104.798 137.563,104.512 138.157,104.259 138.762,104.032 139.377,103.837 
	139.997,103.673 140.623,103.538 141.254,103.432 141.889,103.358 142.527,103.313 143.165,103.298 143.803,103.313 144.44,103.358 
	145.077,103.432 145.708,103.538 146.333,103.673 146.954,103.837 147.567,104.032 148.171,104.259 148.766,104.512 149.35,104.798 
	149.924,105.114 150.483,105.46 151.026,105.835 151.553,106.241 152.063,106.677 152.583,107.173 153.708,108.538 154.869,107.167 
	155.371,106.688 155.869,106.262 156.387,105.86 156.92,105.487 157.475,105.139 158.041,104.821 158.625,104.532 159.221,104.27 
	159.83,104.036 160.453,103.835 161.082,103.661 161.723,103.52 162.371,103.407 163.027,103.329 163.689,103.278 164.352,103.264 
	164.994,103.278 165.635,103.329 166.273,103.407 166.906,103.52 167.533,103.663 168.152,103.835 168.762,104.038 169.363,104.272 
	169.953,104.534 170.533,104.823 171.098,105.141 171.646,105.487 172.18,105.862 172.697,106.262 173.193,106.688 173.668,107.143 
	174.123,107.62 174.551,108.118 174.951,108.635 175.326,109.173 175.672,109.723 175.99,110.292 176.283,110.874 176.543,111.471 
	176.775,112.081 176.979,112.702 177.152,113.335 177.293,113.973 177.404,114.622 177.484,115.276 177.533,115.936 
	177.549,116.602 177.533,117.266 177.484,117.925 177.404,118.573 177.291,119.214 177.15,119.843 176.977,120.466 176.771,121.075 
	176.539,121.673 176.277,122.255 175.986,122.827 175.666,123.382 175.32,123.923 174.947,124.448 174.547,124.958 174.121,125.448 
	173.678,125.913 173.619,125.969 173.479,126.108 172.566,127.012 172.117,127.458 171.605,127.966 171.031,128.532 
	170.408,129.149 169.994,129.561 168.277,131.26 167.498,132.03 166.695,132.825 165.873,133.635 165.035,134.464 164.193,135.296 
	163.348,136.132 162.506,136.964 161.672,137.786 160.854,138.593 160.053,139.382 159.279,140.143 158.535,140.874 157.83,141.567 
	157.164,142.218 156.551,142.823 155.986,143.372 155.48,143.862 155.039,144.292 154.67,144.649 153.6,145.671 152.668,144.823 
	152.43,144.596 152.114,144.286 151.715,143.899 151.243,143.432 150.704,142.899 150.102,142.3 149.444,141.647 148.737,140.94 
	147.987,140.192 147.202,139.405 146.385,138.589 145.546,137.749 144.69,136.889 143.823,136.022 142.952,135.147 142.084,134.276 
	141.225,133.413 139.559,131.739 138.766,130.942 138.008,130.178 137.292,129.458 136.622,128.784 136.008,128.165 
	135.454,127.608 134.968,127.12 134.555,126.704 134.222,126.37 133.978,126.122 133.829,125.971 133.778,125.921 133.318,125.464 
	132.868,124.962 132.452,124.442 132.067,123.903 131.713,123.348 131.393,122.778 131.105,122.198 130.848,121.602 
	130.622,120.999 130.428,120.385 "/>
<path fill-rule="evenodd" clip-rule="evenodd" fill="#E63027" d="M134.589,125.106c-2.409-2.268-3.544-5.385-3.544-8.504
	c0-3.117,1.135-6.234,3.544-8.646c4.678-4.674,12.472-4.674,17.149,0l1.984,2.412l0.426-0.568l1.558-1.844
	c2.268-2.266,5.385-3.543,8.645-3.543c3.119,0,6.236,1.277,8.504,3.543c2.268,2.268,3.543,5.387,3.543,8.646
	s-1.275,6.236-3.543,8.504c0,0-16.582,16.441-19.275,18.992C152.731,143.387,134.589,125.106,134.589,125.106"/>
</svg>
